<?xml version="1.0" encoding="UTF-8"?>
<svg width="800" height="800" xmlns="http://www.w3.org/2000/svg">
    <!-- 背景 -->
    <rect width="800" height="800" fill="#f8f9fa"/>
    
    <!-- タイトル -->
    <text x="400" y="40" text-anchor="middle" font-family="Arial" font-size="24" font-weight="bold" fill="#2c3e50">
        Symbol SDK モジュール解決の仕組み
    </text>

    <!-- 通常のts-nodeによる実行フロー（左側） -->
    <g transform="translate(50, 100)">
        <text x="150" y="30" text-anchor="middle" font-family="Arial" font-size="18" font-weight="bold" fill="#e74c3c">
            通常のts-node実行
        </text>
        
        <rect x="20" y="50" width="260" height="300" rx="10" fill="#fff" stroke="#e74c3c" stroke-width="2"/>
        
        <!-- 実行フロー -->
        <g transform="translate(40, 70)">
            <rect x="0" y="0" width="220" height="40" rx="5" fill="#fff" stroke="#e74c3c"/>
            <text x="110" y="25" text-anchor="middle" font-family="Arial" font-size="12">ts-node src/index.ts</text>
        </g>
        
        <g transform="translate(40, 140)">
            <rect x="0" y="0" width="220" height="40" rx="5" fill="#fff" stroke="#e74c3c"/>
            <text x="110" y="25" text-anchor="middle" font-family="Arial" font-size="12">CommonJSとして解釈</text>
        </g>
        
        <g transform="translate(40, 210)">
            <rect x="0" y="0" width="220" height="40" rx="5" fill="#fff" stroke="#e74c3c"/>
            <text x="110" y="25" text-anchor="middle" font-family="Arial" font-size="12">symbol-sdkのESM importに失敗</text>
        </g>
        
        <!-- 矢印 -->
        <path d="M150 110 L150 140" stroke="#e74c3c" stroke-width="2" marker-end="url(#arrow)"/>
        <path d="M150 180 L150 210" stroke="#e74c3c" stroke-width="2" marker-end="url(#arrow)"/>
    </g>

    <!-- loader ts-node/esmを使用した実行フロー（右側） -->
    <g transform="translate(400, 100)">
        <text x="150" y="30" text-anchor="middle" font-family="Arial" font-size="18" font-weight="bold" fill="#27ae60">
            --loader ts-node/esmを使用
        </text>
        
        <rect x="20" y="50" width="260" height="400" rx="10" fill="#fff" stroke="#27ae60" stroke-width="2"/>
        
        <!-- 実行フロー -->
        <g transform="translate(40, 70)">
            <rect x="0" y="0" width="220" height="40" rx="5" fill="#fff" stroke="#27ae60"/>
            <text x="110" y="25" text-anchor="middle" font-family="Arial" font-size="12">node --loader ts-node/esm</text>
        </g>
        
        <g transform="translate(40, 140)">
            <rect x="0" y="0" width="220" height="40" rx="5" fill="#fff" stroke="#27ae60"/>
            <text x="110" y="25" text-anchor="middle" font-family="Arial" font-size="12">ESモジュールとして解釈</text>
        </g>
        
        <g transform="translate(40, 210)">
            <rect x="0" y="0" width="220" height="40" rx="5" fill="#fff" stroke="#27ae60"/>
            <text x="110" y="25" text-anchor="middle" font-family="Arial" font-size="12">TypeScriptファイルを変換</text>
        </g>
        
        <g transform="translate(40, 280)">
            <rect x="0" y="0" width="220" height="40" rx="5" fill="#fff" stroke="#27ae60"/>
            <text x="110" y="25" text-anchor="middle" font-family="Arial" font-size="12">symbol-sdkのESM importに成功</text>
        </g>
        
        <!-- 矢印 -->
        <path d="M150 110 L150 140" stroke="#27ae60" stroke-width="2" marker-end="url(#arrow)"/>
        <path d="M150 180 L150 210" stroke="#27ae60" stroke-width="2" marker-end="url(#arrow)"/>
        <path d="M150 250 L150 280" stroke="#27ae60" stroke-width="2" marker-end="url(#arrow)"/>
    </g>

    <!-- 下部の説明 -->
    <g transform="translate(50, 550)">
        <text x="350" y="30" text-anchor="middle" font-family="Arial" font-size="18" font-weight="bold" fill="#2c3e50">
            なぜこの設定が必要か？
        </text>
        
        <rect x="20" y="50" width="660" height="160" rx="10" fill="#fff" stroke="#3498db" stroke-width="2"/>
        <text x="40" y="80" font-family="Arial" font-size="12" fill="#7f8c8d">
            <tspan x="40" dy="0">1. symbol-sdkはESモジュールとして実装されています</tspan>
            <tspan x="40" dy="20">2. package.jsonの"type": "module"設定により、プロジェクトもESモジュールとして動作します</tspan>
            <tspan x="40" dy="20">3. 通常のts-nodeはCommonJS形式で実行するため、ESモジュールのimportに失敗します</tspan>
            <tspan x="40" dy="20">4. --loader ts-node/esmオプションにより：</tspan>
            <tspan x="60" dy="20">- TypeScriptファイルをESモジュールとして解釈</tspan>
            <tspan x="60" dy="20">- symbol-sdkのESモジュールとの互換性を確保</tspan>
        </text>
    </g>

    <!-- 矢印の定義 -->
    <defs>
        <marker id="arrow" markerWidth="10" markerHeight="10" refX="9" refY="5" orient="auto">
            <path d="M0,0 L10,5 L0,10 L2,5 Z" fill="#2c3e50"/>
        </marker>
    </defs>
</svg>
